<svg xmlns="http://www.w3.org/2000/svg" viewBox="0 0 1600 620" preserveAspectRatio="xMidYMid slice">
  <defs>
    <linearGradient id="sky" x1="0" y1="0" x2="1" y2="1">
      <stop offset="0" stop-color="#071d46"/>
      <stop offset="0.45" stop-color="#153b82"/>
      <stop offset="1" stop-color="#071d46"/>
    </linearGradient>
    <radialGradient id="glow" cx="75%" cy="35%" r="50%">
      <stop offset="0" stop-color="#f2c94c" stop-opacity="0.22"/>
      <stop offset="0.42" stop-color="#315cab" stop-opacity="0.28"/>
      <stop offset="1" stop-color="#071d46" stop-opacity="0"/>
    </radialGradient>
    <filter id="shadow" x="-20%" y="-20%" width="140%" height="140%">
      <feDropShadow dx="0" dy="18" stdDeviation="16" flood-color="#020b20" flood-opacity="0.55"/>
    </filter>
  </defs>
  <rect width="1600" height="620" fill="url(#sky)"/>
  <rect width="1600" height="620" fill="url(#glow)"/>
  <g opacity="0.22">
    <circle cx="1240" cy="160" r="330" fill="none" stroke="#ffffff" stroke-width="4" opacity="0.15"/>
    <circle cx="1120" cy="110" r="210" fill="#ffffff" opacity="0.06"/>
    <path d="M0 520 C260 420 360 480 560 400 C790 305 900 390 1090 320 C1300 240 1450 280 1600 210 L1600 620 L0 620Z" fill="#0b1633" opacity="0.54"/>
  </g>
  <g opacity="0.92" filter="url(#shadow)">
    <path d="M720 398 L1020 342 L1020 610 L720 610Z" fill="#162746"/>
    <path d="M795 320 L958 296 L958 610 L795 610Z" fill="#263a58"/>
    <path d="M958 296 L1105 352 L1105 610 L958 610Z" fill="#101f39"/>
    <path d="M720 398 L795 320 L958 296 L1020 342Z" fill="#7b879d" opacity="0.42"/>
    <rect x="845" y="414" width="92" height="120" rx="5" fill="#06162f" opacity="0.95"/>
    <rect x="868" y="436" width="48" height="70" fill="#d8edff" opacity="0.16"/>
    <rect x="995" y="422" width="48" height="118" fill="#d8edff" opacity="0.12"/>
    <rect x="1110" y="440" width="52" height="100" fill="#d8edff" opacity="0.10"/>
  </g>
  <g opacity="0.34">
    <circle cx="1130" cy="500" r="5" fill="#ffd763"/>
    <circle cx="1280" cy="470" r="4" fill="#ffd763"/>
    <circle cx="1410" cy="430" r="5" fill="#ffd763"/>
  </g>
</svg>