<svg xmlns="http://www.w3.org/2000/svg" viewBox="0 0 1600 620" preserveAspectRatio="xMidYMid slice">
  <defs>
    <linearGradient id="sky" x1="0" y1="0" x2="1" y2="1">
      <stop offset="0" stop-color="#071d46"/>
      <stop offset="0.45" stop-color="#153b82"/>
      <stop offset="1" stop-color="#071d46"/>
    </linearGradient>
    <radialGradient id="glow" cx="70%" cy="35%" r="45%">
      <stop offset="0" stop-color="#f2c94c" stop-opacity="0.30"/>
      <stop offset="0.38" stop-color="#315cab" stop-opacity="0.30"/>
      <stop offset="1" stop-color="#071d46" stop-opacity="0"/>
    </radialGradient>
    <linearGradient id="gold" x1="0" y1="0" x2="1" y2="1">
      <stop offset="0" stop-color="#f7d36b"/>
      <stop offset="1" stop-color="#b98a19"/>
    </linearGradient>
    <filter id="shadow" x="-20%" y="-20%" width="140%" height="140%">
      <feDropShadow dx="0" dy="18" stdDeviation="16" flood-color="#020b20" flood-opacity="0.55"/>
    </filter>
  </defs>
  <rect width="1600" height="620" fill="url(#sky)"/>
  <rect width="1600" height="620" fill="url(#glow)"/>
  <g opacity="0.25">
    <circle cx="1140" cy="96" r="220" fill="#ffffff" opacity="0.05"/>
    <circle cx="1250" cy="180" r="330" fill="none" stroke="#ffffff" stroke-width="4" opacity="0.10"/>
    <path d="M0 520 C260 420 360 480 560 400 C790 305 900 390 1090 320 C1300 240 1450 280 1600 210 L1600 620 L0 620Z" fill="#0b1633" opacity="0.48"/>
  </g>
  <g opacity="0.90" filter="url(#shadow)">
    <path d="M625 420 L965 362 L965 610 L625 610Z" fill="#162746"/>
    <path d="M710 330 L890 300 L890 610 L710 610Z" fill="#263a58"/>
    <path d="M890 300 L1015 345 L1015 610 L890 610Z" fill="#101f39"/>
    <path d="M620 420 L710 330 L890 300 L965 362Z" fill="#5d6980" opacity="0.52"/>
    <rect x="760" y="410" width="96" height="116" rx="4" fill="#06162f" opacity="0.92"/>
    <rect x="782" y="430" width="52" height="70" fill="#d8edff" opacity="0.12"/>
    <rect x="922" y="420" width="42" height="112" fill="#d8edff" opacity="0.11"/>
  </g>
  <g filter="url(#shadow)" transform="translate(1070 92)">
    <text x="0" y="160" font-family="Arial Black, Arial, sans-serif" font-size="170" font-weight="900" fill="#2f68cc" stroke="#79a6ff" stroke-width="3">UA</text>
    <text x="35" y="305" font-family="Arial Black, Arial, sans-serif" font-size="150" font-weight="900" fill="#1c57b6" stroke="#79a6ff" stroke-width="3">DE</text>
    <text x="225" y="305" font-family="Arial Black, Arial, sans-serif" font-size="175" font-weight="900" fill="url(#gold)" stroke="#f8dc77" stroke-width="3">C</text>
    <rect x="40" y="330" width="360" height="26" rx="13" fill="#d3a72b" opacity="0.95"/>
    <rect x="18" y="355" width="410" height="74" rx="10" fill="#c3b39a" opacity="0.55"/>
  </g>
  <g opacity="0.32">
    <circle cx="1010" cy="520" r="5" fill="#ffd763"/><circle cx="1160" cy="500" r="4" fill="#ffd763"/><circle cx="1350" cy="470" r="5" fill="#ffd763"/>
  </g>
</svg>
